<svg class="svg-icon" style="width: 1em; height: 1em;vertical-align: middle;fill: currentColor;overflow: hidden;" viewBox="0 0 1024 1024" version="1.1" xmlns="http://www.w3.org/2000/svg"><path d="M438.94784 851.65056H280.96512C211.456 851.65056 154.624 794.7776 154.624 725.26848V298.73152c0-69.50912 56.87296-126.38208 126.38208-126.38208h379.10528c69.50912 0 126.38208 56.87296 126.38208 126.38208v123.21792a31.60064 31.60064 0 0 1-63.19104 0V298.73152A63.37536 63.37536 0 0 0 660.11136 235.52H280.96512a63.37536 63.37536 0 0 0-63.19104 63.19104v426.55744A63.37536 63.37536 0 0 0 280.96512 788.48h157.98272a31.60064 31.60064 0 1 1 0 63.19104z m0 0" fill="#0583f2" /><path d="M636.416 551.49568c64.768 0 118.48704 53.7088 118.48704 118.4768S701.184 788.48 636.416 788.48s-118.48704-53.72928-118.48704-118.50752a118.3232 118.3232 0 0 1 118.48704-118.4768m0-63.19104c-101.10976 0-181.67808 80.56832-181.67808 181.66784s80.56832 181.67808 181.67808 181.67808S818.08384 771.072 818.08384 669.97248c0-99.52256-82.14528-181.66784-181.66784-181.66784z m0 0" fill="#0583f2" /><path d="M707.50208 717.37344h-78.99136c-12.63616 0-23.69536-11.0592-23.69536-23.69536v-94.79168c0-12.63616 11.0592-23.69536 23.69536-23.69536s23.69536 11.0592 23.69536 23.69536v71.08608h55.296c12.63616 0 23.69536 11.0592 23.69536 23.69536s-11.0592 23.69536-23.69536 23.69536z m0 0" fill="#0583f2" /><path d="M596.92032 377.72288H328.35584a31.60064 31.60064 0 0 1 0-63.19104h268.56448a31.60064 31.60064 0 0 1 0 63.19104zM391.55712 519.89504h-63.20128a31.60064 31.60064 0 0 1 0-63.19104h63.19104a31.60064 31.60064 0 0 1 0 63.19104z m0 0" fill="#0583f2" /></svg>