<svg width="22" height="22" viewBox="0 0 22 22" fill="none" stroke="#2B7C7D" xmlns="http://www.w3.org/2000/svg">
<path d="M19.1684 10.0843C19.5866 10.6314 19.5866 11.3699 19.1684 11.9161C17.851 13.6358 14.6904 17.1767 11.0004 17.1767C7.31044 17.1767 4.14985 13.6358 2.8325 11.9161C2.62901 11.6541 2.51855 11.3319 2.51855 11.0002C2.51855 10.6685 2.62901 10.3463 2.8325 10.0843C4.14985 8.36461 7.31044 4.82373 11.0004 4.82373C14.6904 4.82373 17.851 8.36461 19.1684 10.0843V10.0843Z" stroke="#2B7C7D" stroke-width="1.5" stroke-linecap="round" stroke-linejoin="round"/>
<path d="M11.0006 13.6471C12.4625 13.6471 13.6476 12.462 13.6476 11.0001C13.6476 9.53816 12.4625 8.35303 11.0006 8.35303C9.53864 8.35303 8.35352 9.53816 8.35352 11.0001C8.35352 12.462 9.53864 13.6471 11.0006 13.6471Z"  stroke-width="1.5" stroke-linecap="round" stroke-linejoin="round"/>
</svg>
